<svg width="120" height="120" xmlns="http://www.w3.org/2000/svg">
 <title>favicon</title>

 <g>
  <title>Layer 1</title>
  <path stroke="#db39dd" stroke-width="5" id="svg_7" d="m97.6163,71.25926c-7.48263,6.71779 -21.40323,11.24739 -37.40488,11.26249c-23.90297,-0.02158 -43.22517,-10.08208 -43.27077,-22.51851c0.0456,-12.44291 19.36779,-22.50125 43.27077,-22.52499c15.9975,0.01511 29.91395,4.54255 37.40073,11.26034l16.42448,4.92882l0.59281,0.17695c-5.43476,-13.05577 -27.71684,-22.84005 -54.41802,-22.84437c-30.77207,0.00432 -55.70728,12.98456 -55.71142,29.00324c0.00829,16.01221 24.94349,28.99245 55.71142,28.99677c26.70533,-0.00432 48.99571,-9.79291 54.41802,-22.85084l-0.58452,0.1748l-16.42863,4.9353zm17.8837,-11.25602l-29.64035,-8.9103l0,4.95688l-45.4969,0l0,7.90036l45.4969,0l0,4.95688l29.64035,-8.90382z" fill="#56ffff"/>
 </g>
</svg>